999
dxfrw 0.5.4
0
SECTION
2
HEADER
9
$ACADVER
1
AC1021
9
$HANDSEED
5
20000
9
$DWGCODEPAGE
3
ANSI_1252
9
$INSBASE
10
0
20
0
30
0
9
$EXTMIN
10
1e+20
20
1e+20
30
1e+20
9
$EXTMAX
10
-1e+20
20
-1e+20
30
-1e+20
9
$LIMMIN
10
0
20
0
9
$LIMMAX
10
420
20
297
9
$ORTHOMODE
70
0
9
$LTSCALE
40
1
9
$TEXTSTYLE
7
STANDARD
9
$DIMASZ
40
25
9
$DIMEXO
40
6.25
9
$DIMEXE
40
12.5
9
$DIMTXT
40
25
9
$DIMTSZ
40
0
9
$DIMAUNIT
70
0
9
$DIMADEC
70
2
9
$DIMSTYLE
2
STANDARD
9
$DIMGAP
40
6.25
9
$DIMTIH
70
0
9
$LUNITS
70
2
9
$LUPREC
70
4
9
$AUNITS
70
0
9
$AUPREC
70
2
9
$SPLINESEGS
70
8
9
$GRIDMODE
70
1
9
$SNAPSTYLE
70
0
9
$GRIDUNIT
10
0
20
0
9
$PINSBASE
10
0
20
0
30
0
9
$PLIMMIN
10
0
20
0
9
$PLIMMAX
10
210
20
297
9
$INSUNITS
70
4
9
$PSVPSCALE
40
0
0
ENDSEC
0
SECTION
2
CLASSES
0
ENDSEC
0
SECTION
2
TABLES
0
TABLE
2
VPORT
5
8
330
0
100
AcDbSymbolTable
70
1
0
VPORT
5
31
330
2
100
AcDbSymbolTableRecord
100
AcDbViewportTableRecord
2
*ACTIVE
70
0
10
0
20
0
11
1
21
1
12
2437.47317925
22
-1130.38169302
13
0
23
0
14
10
24
10
15
10
25
10
16
0
26
0
36
1
17
0
27
0
37
0
40
3057.35991413
41
2.0880733945
42
50
43
0
44
0
50
0
51
0
71
0
72
100
73
1
74
3
75
0
76
1
77
0
78
0
281
0
65
1
110
0
120
0
130
0
111
1
121
0
131
0
112
0
122
1
132
0
79
0
146
0
348
10020
60
7
61
5
292
1
282
1
141
0
142
0
63
250
421
3358443
0
ENDTAB
0
TABLE
2
LTYPE
5
5
330
0
100
AcDbSymbolTable
70
4
0
LTYPE
5
14
330
5
100
AcDbSymbolTableRecord
100
AcDbLinetypeTableRecord
2
ByBlock
70
0
3

72
65
73
0
40
0
0
LTYPE
5
15
330
5
100
AcDbSymbolTableRecord
100
AcDbLinetypeTableRecord
2
ByLayer
70
0
3

72
65
73
0
40
0
0
LTYPE
5
16
330
5
100
AcDbSymbolTableRecord
100
AcDbLinetypeTableRecord
2
Continuous
70
0
3
Solid line
72
65
73
0
40
0
0
LTYPE
5
32
330
5
100
AcDbSymbolTableRecord
100
AcDbLinetypeTableRecord
2
DOT
70
0
3
Dot . . . . . . . . . . . . . . . . . . . . . .
72
65
73
2
40
6.35
49
0
74
0
49
-6.35
74
0
0
LTYPE
5
33
330
5
100
AcDbSymbolTableRecord
100
AcDbLinetypeTableRecord
2
DOT2
70
0
3
Dot (.5x) .....................................
72
65
73
2
40
3.175
49
0
74
0
49
-3.175
74
0
0
LTYPE
5
34
330
5
100
AcDbSymbolTableRecord
100
AcDbLinetypeTableRecord
2
DOTX2
70
0
3
Dot (2x) .  .  .  .  .  .  .  .  .  .  .  .  .
72
65
73
2
40
12.7
49
0
74
0
49
-12.7
74
0
0
LTYPE
5
35
330
5
100
AcDbSymbolTableRecord
100
AcDbLinetypeTableRecord
2
DASHED
70
0
3
Dot . . . . . . . . . . . . . . . . . . . . . .
72
65
73
2
40
19.05
49
12.7
74
0
49
-6.35
74
0
0
LTYPE
5
36
330
5
100
AcDbSymbolTableRecord
100
AcDbLinetypeTableRecord
2
DASHED2
70
0
3
Dashed (.5x) _ _ _ _ _ _ _ _ _ _ _ _ _ _ _ _ _
72
65
73
2
40
9.525
49
6.35
74
0
49
-3.175
74
0
0
LTYPE
5
37
330
5
100
AcDbSymbolTableRecord
100
AcDbLinetypeTableRecord
2
DASHEDX2
70
0
3
Dashed (2x) ____  ____  ____  ____  ____  ___
72
65
73
2
40
38.1
49
25.4
74
0
49
-12.7
74
0
0
LTYPE
5
38
330
5
100
AcDbSymbolTableRecord
100
AcDbLinetypeTableRecord
2
DASHDOT
70
0
3
Dash dot __ . __ . __ . __ . __ . __ . __ . __
72
65
73
4
40
25.4
49
12.7
74
0
49
-6.35
74
0
49
0
74
0
49
-6.35
74
0
0
LTYPE
5
39
330
5
100
AcDbSymbolTableRecord
100
AcDbLinetypeTableRecord
2
DASHDOT2
70
0
3
Dash dot (.5x) _._._._._._._._._._._._._._._.
72
65
73
4
40
12.7
49
6.35
74
0
49
-3.175
74
0
49
0
74
0
49
-3.175
74
0
0
LTYPE
5
3A
330
5
100
AcDbSymbolTableRecord
100
AcDbLinetypeTableRecord
2
DASHDOTX2
70
0
3
Dash dot (2x) ____  .  ____  .  ____  .  ___
72
65
73
4
40
50.8
49
25.4
74
0
49
-12.7
74
0
49
0
74
0
49
-12.7
74
0
0
LTYPE
5
3B
330
5
100
AcDbSymbolTableRecord
100
AcDbLinetypeTableRecord
2
DIVIDE
70
0
3
Divide ____ . . ____ . . ____ . . ____ . . ____
72
65
73
6
40
31.75
49
12.7
74
0
49
-6.35
74
0
49
0
74
0
49
-6.35
74
0
49
0
74
0
49
-6.35
74
0
0
LTYPE
5
3C
330
5
100
AcDbSymbolTableRecord
100
AcDbLinetypeTableRecord
2
DIVIDE2
70
0
3
Divide (.5x) __..__..__..__..__..__..__..__.._
72
65
73
6
40
15.875
49
6.35
74
0
49
-3.175
74
0
49
0
74
0
49
-3.175
74
0
49
0
74
0
49
-3.175
74
0
0
LTYPE
5
3D
330
5
100
AcDbSymbolTableRecord
100
AcDbLinetypeTableRecord
2
DIVIDEX2
70
0
3
Divide (2x) ________  .  .  ________  .  .  _
72
65
73
6
40
63.5
49
25.4
74
0
49
-12.7
74
0
49
0
74
0
49
-12.7
74
0
49
0
74
0
49
-12.7
74
0
0
LTYPE
5
3E
330
5
100
AcDbSymbolTableRecord
100
AcDbLinetypeTableRecord
2
BORDER
70
0
3
Border __ __ . __ __ . __ __ . __ __ . __ __ .
72
65
73
6
40
44.45
49
12.7
74
0
49
-6.35
74
0
49
12.7
74
0
49
-6.35
74
0
49
0
74
0
49
-6.35
74
0
0
LTYPE
5
3F
330
5
100
AcDbSymbolTableRecord
100
AcDbLinetypeTableRecord
2
BORDER2
70
0
3
Border (.5x) __.__.__.__.__.__.__.__.__.__.__.
72
65
73
6
40
22.225
49
6.35
74
0
49
-3.175
74
0
49
6.35
74
0
49
-3.175
74
0
49
0
74
0
49
-3.175
74
0
0
LTYPE
5
40
330
5
100
AcDbSymbolTableRecord
100
AcDbLinetypeTableRecord
2
BORDERX2
70
0
3
Border (2x) ____  ____  .  ____  ____  .  ___
72
65
73
6
40
88.9
49
25.4
74
0
49
-12.7
74
0
49
25.4
74
0
49
-12.7
74
0
49
0
74
0
49
-12.7
74
0
0
LTYPE
5
41
330
5
100
AcDbSymbolTableRecord
100
AcDbLinetypeTableRecord
2
CENTER
70
0
3
Center ____ _ ____ _ ____ _ ____ _ ____ _ ____
72
65
73
4
40
50.8
49
31.75
74
0
49
-6.35
74
0
49
6.35
74
0
49
-6.35
74
0
0
LTYPE
5
42
330
5
100
AcDbSymbolTableRecord
100
AcDbLinetypeTableRecord
2
CENTER2
70
0
3
Center (.5x) ___ _ ___ _ ___ _ ___ _ ___ _ ___
72
65
73
4
40
28.575
49
19.05
74
0
49
-3.175
74
0
49
3.175
74
0
49
-3.175
74
0
0
LTYPE
5
43
330
5
100
AcDbSymbolTableRecord
100
AcDbLinetypeTableRecord
2
CENTERX2
70
0
3
Center (2x) ________  __  ________  __  _____
72
65
73
4
40
101.6
49
63.5
74
0
49
-12.7
74
0
49
12.7
74
0
49
-12.7
74
0
0
ENDTAB
0
TABLE
2
LAYER
5
2
330
0
100
AcDbSymbolTable
70
1
0
LAYER
5
10
330
2
100
AcDbSymbolTableRecord
100
AcDbLayerTableRecord
2
0
70
0
62
7
6
CONTINUOUS
370
0
390
F
0
LAYER
5
44
330
2
100
AcDbSymbolTableRecord
100
AcDbLayerTableRecord
2
legno
70
0
62
3
6
CONTINUOUS
370
0
390
F
0
LAYER
5
45
330
2
100
AcDbSymbolTableRecord
100
AcDbLayerTableRecord
2
m pannelli
70
0
62
4
6
CONTINUOUS
370
0
390
F
0
LAYER
5
46
330
2
100
AcDbSymbolTableRecord
100
AcDbLayerTableRecord
2
ponteggio
70
0
62
5
6
CONTINUOUS
370
0
390
F
0
LAYER
5
47
330
2
100
AcDbSymbolTableRecord
100
AcDbLayerTableRecord
2
m legno
70
0
62
94
6
CONTINUOUS
370
0
390
F
0
LAYER
5
48
330
2
100
AcDbSymbolTableRecord
100
AcDbLayerTableRecord
2
agganci
70
0
62
8
6
CONTINUOUS
370
0
390
F
0
LAYER
5
49
330
2
100
AcDbSymbolTableRecord
100
AcDbLayerTableRecord
2
scarti
70
0
62
2
6
CONTINUOUS
370
0
390
F
0
LAYER
5
4A
330
2
100
AcDbSymbolTableRecord
100
AcDbLayerTableRecord
2
pannelli foderati
70
0
62
1
6
CONTINUOUS
370
0
390
F
0
LAYER
5
4B
330
2
100
AcDbSymbolTableRecord
100
AcDbLayerTableRecord
2
misure varie
70
0
62
252
6
CONTINUOUS
370
0
390
F
0
ENDTAB
0
TABLE
2
STYLE
5
3
330
0
100
AcDbSymbolTable
70
3
0
STYLE
5
4C
330
2
100
AcDbSymbolTableRecord
100
AcDbTextStyleTableRecord
2
Standard
70
0
40
0
41
1
50
0
71
0
42
1
3
txt
4

0
ENDTAB
0
TABLE
2
VIEW
5
6
330
0
100
AcDbSymbolTable
70
0
0
ENDTAB
0
TABLE
2
UCS
5
7
330
0
100
AcDbSymbolTable
70
0
0
ENDTAB
0
TABLE
2
APPID
5
9
330
0
100
AcDbSymbolTable
70
1
0
APPID
5
12
330
9
100
AcDbSymbolTableRecord
100
AcDbRegAppTableRecord
2
ACAD
70
0
0
ENDTAB
0
TABLE
2
DIMSTYLE
5
A
330
0
100
AcDbSymbolTable
70
1
100
AcDbDimStyleTable
71
1
0
DIMSTYLE
105
4D
330
A
100
AcDbSymbolTableRecord
100
AcDbDimStyleTableRecord
2
Standard
70
0
40
1
41
25
42
6.25
43
0.38
44
12.5
45
0
46
0
47
0
48
0
140
25
141
0.09
142
0
143
25.4
144
1
145
0
146
1
147
6.25
148
0
71
0
72
0
73
0
74
1
75
0
76
0
77
0
78
0
79
0
170
0
171
2
172
0
173
0
174
0
175
0
176
0
177
0
178
0
179
0
271
4
272
4
273
2
274
2
275
0
276
0
277
2
278
46
279
0
280
0
281
0
282
0
283
1
284
0
285
0
286
0
288
0
289
3
340
Standard
341

371
-2
372
-2
0
ENDTAB
0
TABLE
2
BLOCK_RECORD
5
1
330
0
100
AcDbSymbolTable
70
2
0
BLOCK_RECORD
5
1F
330
1
100
AcDbSymbolTableRecord
100
AcDbBlockTableRecord
2
*Model_Space
70
0
280
1
281
0
0
BLOCK_RECORD
5
1E
330
1
100
AcDbSymbolTableRecord
100
AcDbBlockTableRecord
2
*Paper_Space
70
0
280
1
281
0
0
BLOCK_RECORD
5
4E
330
1
100
AcDbSymbolTableRecord
100
AcDbBlockTableRecord
2
montante
70
0
280
1
281
0
0
BLOCK_RECORD
5
51
330
1
100
AcDbSymbolTableRecord
100
AcDbBlockTableRecord
2
montanteA
70
0
280
1
281
0
0
ENDTAB
0
ENDSEC
0
SECTION
2
BLOCKS
0
BLOCK
5
20
330
1F
100
AcDbEntity
8
0
100
AcDbBlockBegin
2
*Model_Space
70
0
10
0
20
0
30
0
3
*Model_Space
1

0
ENDBLK
5
21
330
1F
100
AcDbEntity
8
0
100
AcDbBlockEnd
0
BLOCK
5
1C
330
1B
100
AcDbEntity
8
0
100
AcDbBlockBegin
2
*Paper_Space
70
0
10
0
20
0
30
0
3
*Paper_Space
1

0
ENDBLK
5
1D
330
1F
100
AcDbEntity
8
0
100
AcDbBlockEnd
0
BLOCK
5
4F
330
4E
100
AcDbEntity
8
0
100
AcDbBlockBegin
2
montante
70
0
10
0
20
0
3
montante
1

0
LINE
5
54
100
AcDbEntity
8
legno
6
ByLayer
62
256
370
-1
100
AcDbLine
10
-40
20
20
11
0
21
20
0
LINE
5
55
100
AcDbEntity
8
legno
6
ByLayer
62
256
370
-1
100
AcDbLine
10
0
20
20
11
0
21
-20
0
LINE
5
56
100
AcDbEntity
8
legno
6
ByLayer
62
256
370
-1
100
AcDbLine
10
0
20
-20
11
-40
21
-20
0
LINE
5
57
100
AcDbEntity
8
legno
6
ByLayer
62
256
370
-1
100
AcDbLine
10
-40
20
-20
11
-40
21
20
0
LINE
5
58
100
AcDbEntity
8
agganci
6
ByLayer
62
256
370
-1
100
AcDbLine
10
0
20
5.4
11
10
21
5.4
0
LINE
5
59
100
AcDbEntity
8
agganci
6
ByLayer
62
256
370
-1
100
AcDbLine
10
10
20
5.4
11
10
21
15.4
0
LINE
5
5A
100
AcDbEntity
8
agganci
6
ByLayer
62
256
370
-1
100
AcDbLine
10
10
20
15.4
11
0
21
15.4
0
LINE
5
5B
100
AcDbEntity
8
agganci
6
ByLayer
62
256
370
-1
100
AcDbLine
10
0
20
15.4
11
0
21
5.4
0
LINE
5
5C
100
AcDbEntity
8
agganci
6
ByLayer
62
256
370
-1
100
AcDbLine
10
10
20
5.4
11
10
21
5.4
0
LINE
5
5D
100
AcDbEntity
8
agganci
6
ByLayer
62
256
370
-1
100
AcDbLine
10
10
20
5.4
11
10
21
5.4
0
LINE
5
5E
100
AcDbEntity
8
agganci
6
ByLayer
62
256
370
-1
100
AcDbLine
10
10
20
5.4
11
10
21
5.4
0
LINE
5
5F
100
AcDbEntity
8
agganci
6
ByLayer
62
256
370
-1
100
AcDbLine
10
10
20
5.4
11
10
21
5.4
0
LINE
5
60
100
AcDbEntity
8
agganci
6
ByLayer
62
256
370
-1
100
AcDbLine
10
0
20
-15.394053347
11
10
21
-15.394053347
0
LINE
5
61
100
AcDbEntity
8
agganci
6
ByLayer
62
256
370
-1
100
AcDbLine
10
10
20
-15.394053347
11
10
21
-5.39405334699
0
LINE
5
62
100
AcDbEntity
8
agganci
6
ByLayer
62
256
370
-1
100
AcDbLine
10
10
20
-5.39405334699
11
0
21
-5.39405334699
0
LINE
5
63
100
AcDbEntity
8
agganci
6
ByLayer
62
256
370
-1
100
AcDbLine
10
0
20
-5.39405334699
11
0
21
-15.394053347
0
LINE
5
64
100
AcDbEntity
8
agganci
6
ByLayer
62
256
370
-1
100
AcDbLine
10
10
20
-15.394053347
11
10
21
-15.394053347
0
LINE
5
65
100
AcDbEntity
8
agganci
6
ByLayer
62
256
370
-1
100
AcDbLine
10
10
20
-15.394053347
11
10
21
-15.394053347
0
LINE
5
66
100
AcDbEntity
8
agganci
6
ByLayer
62
256
370
-1
100
AcDbLine
10
10
20
-15.394053347
11
10
21
-15.394053347
0
LINE
5
67
100
AcDbEntity
8
agganci
6
ByLayer
62
256
370
-1
100
AcDbLine
10
10
20
-15.394053347
11
10
21
-15.394053347
0
LINE
5
68
100
AcDbEntity
8
legno
6
ByLayer
62
256
370
-1
100
AcDbLine
10
0
20
20
11
40
21
20
0
LINE
5
69
100
AcDbEntity
8
legno
6
ByLayer
62
256
370
-1
100
AcDbLine
10
40
20
20
11
40
21
-20
0
LINE
5
6A
100
AcDbEntity
8
legno
6
ByLayer
62
256
370
-1
100
AcDbLine
10
40
20
-20
11
0
21
-20
0
LINE
5
6B
100
AcDbEntity
8
legno
6
ByLayer
62
256
370
-1
100
AcDbLine
10
0
20
-20
11
0
21
20
0
LINE
5
6C
100
AcDbEntity
8
agganci
6
ByLayer
62
256
370
-1
100
AcDbLine
10
40
20
5.4
11
50
21
5.4
0
LINE
5
6D
100
AcDbEntity
8
agganci
6
ByLayer
62
256
370
-1
100
AcDbLine
10
50
20
5.4
11
50
21
15.4
0
LINE
5
6E
100
AcDbEntity
8
agganci
6
ByLayer
62
256
370
-1
100
AcDbLine
10
50
20
15.4
11
40
21
15.4
0
LINE
5
6F
100
AcDbEntity
8
agganci
6
ByLayer
62
256
370
-1
100
AcDbLine
10
40
20
15.4
11
40
21
5.4
0
LINE
5
70
100
AcDbEntity
8
agganci
6
ByLayer
62
256
370
-1
100
AcDbLine
10
50
20
5.4
11
50
21
5.4
0
LINE
5
71
100
AcDbEntity
8
agganci
6
ByLayer
62
256
370
-1
100
AcDbLine
10
50
20
5.4
11
50
21
5.4
0
LINE
5
72
100
AcDbEntity
8
agganci
6
ByLayer
62
256
370
-1
100
AcDbLine
10
50
20
5.4
11
50
21
5.4
0
LINE
5
73
100
AcDbEntity
8
agganci
6
ByLayer
62
256
370
-1
100
AcDbLine
10
50
20
5.4
11
50
21
5.4
0
LINE
5
74
100
AcDbEntity
8
agganci
6
ByLayer
62
256
370
-1
100
AcDbLine
10
40
20
-15.394053347
11
50
21
-15.394053347
0
LINE
5
75
100
AcDbEntity
8
agganci
6
ByLayer
62
256
370
-1
100
AcDbLine
10
50
20
-15.394053347
11
50
21
-5.39405334699
0
LINE
5
76
100
AcDbEntity
8
agganci
6
ByLayer
62
256
370
-1
100
AcDbLine
10
50
20
-5.39405334699
11
40
21
-5.39405334699
0
LINE
5
77
100
AcDbEntity
8
agganci
6
ByLayer
62
256
370
-1
100
AcDbLine
10
40
20
-5.39405334699
11
40
21
-15.394053347
0
LINE
5
78
100
AcDbEntity
8
agganci
6
ByLayer
62
256
370
-1
100
AcDbLine
10
50
20
-15.394053347
11
50
21
-15.394053347
0
LINE
5
79
100
AcDbEntity
8
agganci
6
ByLayer
62
256
370
-1
100
AcDbLine
10
50
20
-15.394053347
11
50
21
-15.394053347
0
LINE
5
7A
100
AcDbEntity
8
agganci
6
ByLayer
62
256
370
-1
100
AcDbLine
10
50
20
-15.394053347
11
50
21
-15.394053347
0
LINE
5
7B
100
AcDbEntity
8
agganci
6
ByLayer
62
256
370
-1
100
AcDbLine
10
50
20
-15.394053347
11
50
21
-15.394053347
0
ENDBLK
5
50
330
4E
100
AcDbEntity
8
0
100
AcDbBlockEnd
0
BLOCK
5
52
330
51
100
AcDbEntity
8
0
100
AcDbBlockBegin
2
montanteA
70
0
10
0
20
0
3
montanteA
1

0
LINE
5
7C
100
AcDbEntity
8
legno
6
ByLayer
62
256
370
-1
100
AcDbLine
10
100
20
80
11
140
21
80
0
LINE
5
7D
100
AcDbEntity
8
legno
6
ByLayer
62
256
370
-1
100
AcDbLine
10
140
20
80
11
140
21
40
0
LINE
5
7E
100
AcDbEntity
8
legno
6
ByLayer
62
256
370
-1
100
AcDbLine
10
140
20
40
11
100
21
40
0
LINE
5
7F
100
AcDbEntity
8
legno
6
ByLayer
62
256
370
-1
100
AcDbLine
10
100
20
40
11
100
21
80
0
LINE
5
80
100
AcDbEntity
8
agganci
6
ByLayer
62
256
370
-1
100
AcDbLine
10
140
20
65.4
11
150
21
65.4
0
LINE
5
81
100
AcDbEntity
8
agganci
6
ByLayer
62
256
370
-1
100
AcDbLine
10
150
20
65.4
11
150
21
75.4
0
LINE
5
82
100
AcDbEntity
8
agganci
6
ByLayer
62
256
370
-1
100
AcDbLine
10
150
20
75.4
11
140
21
75.4
0
LINE
5
83
100
AcDbEntity
8
agganci
6
ByLayer
62
256
370
-1
100
AcDbLine
10
140
20
75.4
11
140
21
65.4
0
LINE
5
84
100
AcDbEntity
8
agganci
6
ByLayer
62
256
370
-1
100
AcDbLine
10
150
20
65.4
11
150
21
65.4
0
LINE
5
85
100
AcDbEntity
8
agganci
6
ByLayer
62
256
370
-1
100
AcDbLine
10
150
20
65.4
11
150
21
65.4
0
LINE
5
86
100
AcDbEntity
8
agganci
6
ByLayer
62
256
370
-1
100
AcDbLine
10
150
20
65.4
11
150
21
65.4
0
LINE
5
87
100
AcDbEntity
8
agganci
6
ByLayer
62
256
370
-1
100
AcDbLine
10
150
20
65.4
11
150
21
65.4
0
LINE
5
88
100
AcDbEntity
8
agganci
6
ByLayer
62
256
370
-1
100
AcDbLine
10
140
20
44.605946653
11
150
21
44.605946653
0
LINE
5
89
100
AcDbEntity
8
agganci
6
ByLayer
62
256
370
-1
100
AcDbLine
10
150
20
44.605946653
11
150
21
54.605946653
0
LINE
5
8A
100
AcDbEntity
8
agganci
6
ByLayer
62
256
370
-1
100
AcDbLine
10
150
20
54.605946653
11
140
21
54.605946653
0
LINE
5
8B
100
AcDbEntity
8
agganci
6
ByLayer
62
256
370
-1
100
AcDbLine
10
140
20
54.605946653
11
140
21
44.605946653
0
LINE
5
8C
100
AcDbEntity
8
agganci
6
ByLayer
62
256
370
-1
100
AcDbLine
10
150
20
44.605946653
11
150
21
44.605946653
0
LINE
5
8D
100
AcDbEntity
8
agganci
6
ByLayer
62
256
370
-1
100
AcDbLine
10
150
20
44.605946653
11
150
21
44.605946653
0
LINE
5
8E
100
AcDbEntity
8
agganci
6
ByLayer
62
256
370
-1
100
AcDbLine
10
150
20
44.605946653
11
150
21
44.605946653
0
LINE
5
8F
100
AcDbEntity
8
agganci
6
ByLayer
62
256
370
-1
100
AcDbLine
10
150
20
44.605946653
11
150
21
44.605946653
0
LINE
5
90
100
AcDbEntity
8
legno
6
ByLayer
62
256
370
-1
100
AcDbLine
10
140
20
80
11
100
21
80
0
LINE
5
91
100
AcDbEntity
8
agganci
6
ByLayer
62
256
370
-1
100
AcDbLine
10
125.4
20
80
11
125.4
21
70
0
LINE
5
92
100
AcDbEntity
8
agganci
6
ByLayer
62
256
370
-1
100
AcDbLine
10
125.4
20
70
11
135.4
21
70
0
LINE
5
93
100
AcDbEntity
8
agganci
6
ByLayer
62
256
370
-1
100
AcDbLine
10
135.4
20
70
11
135.4
21
80
0
LINE
5
94
100
AcDbEntity
8
agganci
6
ByLayer
62
256
370
-1
100
AcDbLine
10
135.4
20
80
11
125.4
21
80
0
LINE
5
95
100
AcDbEntity
8
agganci
6
ByLayer
62
256
370
-1
100
AcDbLine
10
125.4
20
70
11
125.4
21
70
0
LINE
5
96
100
AcDbEntity
8
agganci
6
ByLayer
62
256
370
-1
100
AcDbLine
10
125.4
20
70
11
125.4
21
70
0
LINE
5
97
100
AcDbEntity
8
agganci
6
ByLayer
62
256
370
-1
100
AcDbLine
10
125.4
20
70
11
125.4
21
70
0
LINE
5
98
100
AcDbEntity
8
agganci
6
ByLayer
62
256
370
-1
100
AcDbLine
10
125.4
20
70
11
125.4
21
70
0
LINE
5
99
100
AcDbEntity
8
agganci
6
ByLayer
62
256
370
-1
100
AcDbLine
10
104.605946653
20
80
11
104.605946653
21
70
0
LINE
5
9A
100
AcDbEntity
8
agganci
6
ByLayer
62
256
370
-1
100
AcDbLine
10
104.605946653
20
70
11
114.605946653
21
70
0
LINE
5
9B
100
AcDbEntity
8
agganci
6
ByLayer
62
256
370
-1
100
AcDbLine
10
114.605946653
20
70
11
114.605946653
21
80
0
LINE
5
9C
100
AcDbEntity
8
agganci
6
ByLayer
62
256
370
-1
100
AcDbLine
10
114.605946653
20
80
11
104.605946653
21
80
0
LINE
5
9D
100
AcDbEntity
8
agganci
6
ByLayer
62
256
370
-1
100
AcDbLine
10
104.605946653
20
70
11
104.605946653
21
70
0
LINE
5
9E
100
AcDbEntity
8
agganci
6
ByLayer
62
256
370
-1
100
AcDbLine
10
104.605946653
20
70
11
104.605946653
21
70
0
LINE
5
9F
100
AcDbEntity
8
agganci
6
ByLayer
62
256
370
-1
100
AcDbLine
10
104.605946653
20
70
11
104.605946653
21
70
0
LINE
5
A0
100
AcDbEntity
8
agganci
6
ByLayer
62
256
370
-1
100
AcDbLine
10
104.605946653
20
70
11
104.605946653
21
70
0
LINE
5
A1
100
AcDbEntity
8
legno
6
ByLayer
62
256
370
-1
100
AcDbLine
10
100
20
40
11
140
21
40
0
LINE
5
A2
100
AcDbEntity
8
legno
6
ByLayer
62
256
370
-1
100
AcDbLine
10
140
20
40
11
100
21
40
0
LINE
5
A3
100
AcDbEntity
8
agganci
6
ByLayer
62
256
370
-1
100
AcDbLine
10
125.4
20
40
11
125.4
21
30
0
LINE
5
A4
100
AcDbEntity
8
agganci
6
ByLayer
62
256
370
-1
100
AcDbLine
10
125.4
20
30
11
135.4
21
30
0
LINE
5
A5
100
AcDbEntity
8
agganci
6
ByLayer
62
256
370
-1
100
AcDbLine
10
135.4
20
30
11
135.4
21
40
0
LINE
5
A6
100
AcDbEntity
8
agganci
6
ByLayer
62
256
370
-1
100
AcDbLine
10
135.4
20
40
11
125.4
21
40
0
LINE
5
A7
100
AcDbEntity
8
agganci
6
ByLayer
62
256
370
-1
100
AcDbLine
10
125.4
20
30
11
125.4
21
30
0
LINE
5
A8
100
AcDbEntity
8
agganci
6
ByLayer
62
256
370
-1
100
AcDbLine
10
125.4
20
30
11
125.4
21
30
0
LINE
5
A9
100
AcDbEntity
8
agganci
6
ByLayer
62
256
370
-1
100
AcDbLine
10
125.4
20
30
11
125.4
21
30
0
LINE
5
AA
100
AcDbEntity
8
agganci
6
ByLayer
62
256
370
-1
100
AcDbLine
10
125.4
20
30
11
125.4
21
30
0
LINE
5
AB
100
AcDbEntity
8
agganci
6
ByLayer
62
256
370
-1
100
AcDbLine
10
104.605946653
20
40
11
104.605946653
21
30
0
LINE
5
AC
100
AcDbEntity
8
agganci
6
ByLayer
62
256
370
-1
100
AcDbLine
10
104.605946653
20
30
11
114.605946653
21
30
0
LINE
5
AD
100
AcDbEntity
8
agganci
6
ByLayer
62
256
370
-1
100
AcDbLine
10
114.605946653
20
30
11
114.605946653
21
40
0
LINE
5
AE
100
AcDbEntity
8
agganci
6
ByLayer
62
256
370
-1
100
AcDbLine
10
114.605946653
20
40
11
104.605946653
21
40
0
LINE
5
AF
100
AcDbEntity
8
agganci
6
ByLayer
62
256
370
-1
100
AcDbLine
10
104.605946653
20
30
11
104.605946653
21
30
0
LINE
5
B0
100
AcDbEntity
8
agganci
6
ByLayer
62
256
370
-1
100
AcDbLine
10
104.605946653
20
30
11
104.605946653
21
30
0
LINE
5
B1
100
AcDbEntity
8
agganci
6
ByLayer
62
256
370
-1
100
AcDbLine
10
104.605946653
20
30
11
104.605946653
21
30
0
LINE
5
B2
100
AcDbEntity
8
agganci
6
ByLayer
62
256
370
-1
100
AcDbLine
10
104.605946653
20
30
11
104.605946653
21
30
0
LINE
5
B3
100
AcDbEntity
8
legno
6
ByLayer
62
256
370
-1
100
AcDbLine
10
140
20
80
11
100
21
80
0
ENDBLK
5
53
330
51
100
AcDbEntity
8
0
100
AcDbBlockEnd
0
ENDSEC
0
SECTION
2
ENTITIES
0
CIRCLE
5
B4
100
AcDbEntity
8
ponteggio
6
ByLayer
62
256
370
-1
100
AcDbCircle
10
25
20
25
40
25
0
CIRCLE
5
B5
100
AcDbEntity
8
ponteggio
6
ByLayer
62
256
370
-1
100
AcDbCircle
10
1825
20
25
40
25
0
CIRCLE
5
B6
100
AcDbEntity
8
ponteggio
6
ByLayer
62
256
370
-1
100
AcDbCircle
10
3625
20
25
40
25
0
CIRCLE
5
B7
100
AcDbEntity
8
ponteggio
6
ByLayer
62
256
370
-1
100
AcDbCircle
10
25
20
1225
40
25
0
CIRCLE
5
B8
100
AcDbEntity
8
ponteggio
6
ByLayer
62
256
370
-1
100
AcDbCircle
10
1825
20
1225
40
25
0
CIRCLE
5
B9
100
AcDbEntity
8
ponteggio
6
ByLayer
62
256
370
-1
100
AcDbCircle
10
3625
20
1225
40
25
0
LINE
5
BA
100
AcDbEntity
8
legno
6
ByLayer
62
256
370
-1
100
AcDbLine
10
-40
20
0
11
-40
21
1350
0
LINE
5
BB
100
AcDbEntity
8
legno
6
ByLayer
62
256
370
-1
100
AcDbLine
10
-40
20
1350
11
0
21
1350
0
LINE
5
BC
100
AcDbEntity
8
legno
6
ByLayer
62
256
370
-1
100
AcDbLine
10
0
20
1350
11
0
21
0
0
LINE
5
BD
100
AcDbEntity
8
legno
6
ByLayer
62
256
370
-1
100
AcDbLine
10
3650
20
0
11
3690
21
0
0
LINE
5
BE
100
AcDbEntity
8
legno
6
ByLayer
62
256
370
-1
100
AcDbLine
10
3690
20
0
11
3690
21
1350
0
LINE
5
BF
100
AcDbEntity
8
legno
6
ByLayer
62
256
370
-1
100
AcDbLine
10
3690
20
1350
11
3650
21
1350
0
LINE
5
C0
100
AcDbEntity
8
legno
6
ByLayer
62
256
370
-1
100
AcDbLine
10
3650
20
1350
11
3650
21
0
0
LINE
5
C1
100
AcDbEntity
8
legno
6
ByLayer
62
256
370
-1
100
AcDbLine
10
-40
20
-0
11
0
21
-0
0
LINE
5
C2
100
AcDbEntity
8
legno
6
ByLayer
62
256
370
-1
100
AcDbLine
10
-40
20
-20
11
-40
21
-20
0
LINE
5
C3
100
AcDbEntity
8
legno
6
ByLayer
62
256
370
-1
100
AcDbLine
10
-40
20
-20
11
-40
21
-20
0
LINE
5
C4
100
AcDbEntity
8
legno
6
ByLayer
62
256
370
-1
100
AcDbLine
10
-40
20
-20
11
-40
21
-20
0
LINE
5
C5
100
AcDbEntity
8
legno
6
ByLayer
62
256
370
-1
100
AcDbLine
10
-40
20
-20
11
-40
21
-20
0
LINE
5
C6
100
AcDbEntity
8
legno
6
ByLayer
62
256
370
-1
100
AcDbLine
10
-80
20
-40
11
-80
21
0
0
LINE
5
C7
100
AcDbEntity
8
legno
6
ByLayer
62
256
370
-1
100
AcDbLine
10
-80
20
0
11
-80
21
-40
0
LINE
5
C8
100
AcDbEntity
8
legno
6
ByLayer
62
256
370
-1
100
AcDbLine
10
3730
20
-40
11
3730
21
0
0
LINE
5
C9
100
AcDbEntity
8
legno
6
ByLayer
62
256
370
-1
100
AcDbLine
10
-80
20
-40
11
3730
21
-40
0
LINE
5
CA
100
AcDbEntity
8
legno
6
ByLayer
62
256
370
-1
100
AcDbLine
10
3730
20
0
11
-80
21
0
0
DIMENSION
5
CB
100
AcDbEntity
8
m legno
6
ByLayer
62
256
370
-1
100
AcDbDimension
10
3902.86811214
20
-5.21376504349e-14
30
0
11
3884.11811214
21
675
31
0
70
33
71
5
3
Standard
53
0
210
0
220
0
230
1
100
AcDbAlignedDimension
13
3690
23
1350
33
0
14
3690
24
0
34
0
0
DIMENSION
5
CC
100
AcDbEntity
8
m legno
6
ByLayer
62
256
370
-1
100
AcDbDimension
10
3730
20
-205.16299367
30
0
11
1825
21
-186.41299367
31
0
70
33
71
5
3
Standard
53
0
210
0
220
0
230
1
100
AcDbAlignedDimension
13
-80
23
-40
33
0
14
3730
24
-40
34
0
0
DIMENSION
5
CD
100
AcDbEntity
8
m legno
6
ByLayer
62
256
370
-1
100
AcDbDimension
10
-271.960247423
20
5.68138749072e-14
30
0
11
-290.710247423
21
675
31
0
70
33
71
5
3
Standard
53
0
210
0
220
0
230
1
100
AcDbAlignedDimension
13
-40
23
1350
33
0
14
-40
24
0
34
0
0
LINE
5
CE
100
AcDbEntity
8
legno
6
ByLayer
62
256
370
-1
100
AcDbLine
10
-80
20
-40
11
-40
21
-40
0
LINE
5
CF
100
AcDbEntity
8
m pannelli
6
ByLayer
62
256
370
-1
100
AcDbLine
10
3650
20
1350
11
3740
21
1350
0
LINE
5
D0
100
AcDbEntity
8
m pannelli
6
ByLayer
62
256
370
-1
100
AcDbLine
10
0
20
1350
11
-90
21
1350
0
DIMENSION
5
D1
100
AcDbEntity
8
m pannelli
6
ByLayer
62
256
370
-1
100
AcDbDimension
10
4013.7992657
20
1350
30
0
11
3995.0492657
21
861.5
31
0
70
32
71
5
3
Standard
53
0
210
0
220
0
230
1
100
AcDbAlignedDimension
13
3740
23
373
33
0
14
3740
24
1350
34
0
100
AcDbRotatedDimension
50
90
0
DIMENSION
5
D2
100
AcDbEntity
8
m pannelli
6
ByLayer
62
256
370
-1
100
AcDbDimension
10
3898.82210706
20
373
30
0
11
3880.07210706
21
141.5
31
0
70
32
71
5
3
Standard
53
0
210
0
220
0
230
1
100
AcDbAlignedDimension
13
3740
23
-90
33
0
14
3740
24
373
34
0
100
AcDbRotatedDimension
50
90
0
DIMENSION
5
D3
100
AcDbEntity
8
m pannelli
6
ByLayer
62
256
370
-1
100
AcDbDimension
10
3740
20
-207.155460325
30
0
11
3483
21
-188.405460325
31
0
70
32
71
5
3
Standard
53
0
210
0
220
0
230
1
100
AcDbAlignedDimension
13
3226
23
-90
33
0
14
3740
24
-90
34
0
100
AcDbRotatedDimension
0
DIMENSION
5
D4
100
AcDbEntity
8
m pannelli
6
ByLayer
62
256
370
-1
100
AcDbDimension
10
2249
20
-262.417782601
30
0
11
2737.5
21
-243.667782601
31
0
70
32
71
5
3
Standard
53
0
210
0
220
0
230
1
100
AcDbAlignedDimension
13
3226
23
-90
33
0
14
2249
24
-90
34
0
100
AcDbRotatedDimension
0
DIMENSION
5
D5
100
AcDbEntity
8
m pannelli
6
ByLayer
62
256
370
-1
100
AcDbDimension
10
1272
20
-250.489701574
30
0
11
1760.5
21
-231.739701574
31
0
70
32
71
5
3
Standard
53
0
210
0
220
0
230
1
100
AcDbAlignedDimension
13
2249
23
-90
33
0
14
1272
24
-90
34
0
100
AcDbRotatedDimension
0
DIMENSION
5
D6
100
AcDbEntity
8
m pannelli
6
ByLayer
62
256
370
-1
100
AcDbDimension
10
295
20
-244.52566106
30
0
11
783.5
21
-225.77566106
31
0
70
32
71
5
3
Standard
53
0
210
0
220
0
230
1
100
AcDbAlignedDimension
13
1272
23
-90
33
0
14
295
24
-90
34
0
100
AcDbRotatedDimension
0
DIMENSION
5
D7
100
AcDbEntity
8
m pannelli
6
ByLayer
62
256
370
-1
100
AcDbDimension
10
-90
20
-160.095993489
30
0
11
102.5
21
-141.345993489
31
0
70
32
71
5
3
Standard
53
0
210
0
220
0
230
1
100
AcDbAlignedDimension
13
295
23
-90
33
0
14
-90
24
-90
34
0
100
AcDbRotatedDimension
0
DIMENSION
5
D8
100
AcDbEntity
8
m pannelli
6
ByLayer
62
256
370
-1
100
AcDbDimension
10
-213.75121201
20
502
30
0
11
-232.50121201
21
206
31
0
70
32
71
5
3
Standard
53
0
210
0
220
0
230
1
100
AcDbAlignedDimension
13
-90
23
-90
33
0
14
-90
24
502
34
0
100
AcDbRotatedDimension
50
90
0
DIMENSION
5
D9
100
AcDbEntity
8
m pannelli
6
ByLayer
62
256
370
-1
100
AcDbDimension
10
-253.447865669
20
1350
30
0
11
-272.197865669
21
926
31
0
70
32
71
5
3
Standard
53
0
210
0
220
0
230
1
100
AcDbAlignedDimension
13
-90
23
502
33
0
14
-90
24
1350
34
0
100
AcDbRotatedDimension
50
90
0
LINE
5
DA
100
AcDbEntity
8
scarti
6
ByLayer
62
256
370
-1
100
AcDbLine
10
-90
20
1350
11
-90
21
1479
0
LINE
5
DB
100
AcDbEntity
8
agganci
6
ByLayer
62
256
370
-1
100
AcDbLine
10
3690
20
-90
11
3690
21
-40
0
LINE
5
DC
100
AcDbEntity
8
agganci
6
ByLayer
62
256
370
-1
100
AcDbLine
10
3740
20
-40
11
3740
21
-90
0
LINE
5
DD
100
AcDbEntity
8
agganci
6
ByLayer
62
256
370
-1
100
AcDbLine
10
3690
20
398
11
3690
21
348
0
LINE
5
DE
100
AcDbEntity
8
agganci
6
ByLayer
62
256
370
-1
100
AcDbLine
10
3740
20
348
11
3740
21
398
0
LINE
5
DF
100
AcDbEntity
8
agganci
6
ByLayer
62
256
370
-1
100
AcDbLine
10
3690
20
1350
11
3690
21
1300
0
LINE
5
E0
100
AcDbEntity
8
agganci
6
ByLayer
62
256
370
-1
100
AcDbLine
10
3740
20
1300
11
3740
21
1350
0
LINE
5
E1
100
AcDbEntity
8
agganci
6
ByLayer
62
256
370
-1
100
AcDbLine
10
-40
20
1350
11
-90
21
1350
0
LINE
5
E2
100
AcDbEntity
8
agganci
6
ByLayer
62
256
370
-1
100
AcDbLine
10
-90
20
1350
11
-90
21
1300
0
LINE
5
E3
100
AcDbEntity
8
agganci
6
ByLayer
62
256
370
-1
100
AcDbLine
10
-90
20
1300
11
-40
21
1300
0
LINE
5
E4
100
AcDbEntity
8
agganci
6
ByLayer
62
256
370
-1
100
AcDbLine
10
-40
20
1300
11
-40
21
1350
0
LINE
5
E5
100
AcDbEntity
8
agganci
6
ByLayer
62
256
370
-1
100
AcDbLine
10
-40
20
-40
11
-90
21
-40
0
LINE
5
E6
100
AcDbEntity
8
agganci
6
ByLayer
62
256
370
-1
100
AcDbLine
10
-90
20
-40
11
-90
21
-90
0
LINE
5
E7
100
AcDbEntity
8
agganci
6
ByLayer
62
256
370
-1
100
AcDbLine
10
-90
20
-90
11
-40
21
-90
0
LINE
5
E8
100
AcDbEntity
8
agganci
6
ByLayer
62
256
370
-1
100
AcDbLine
10
-40
20
-90
11
-40
21
-40
0
LINE
5
E9
100
AcDbEntity
8
agganci
6
ByLayer
62
256
370
-1
100
AcDbLine
10
-90
20
527
11
-90
21
477
0
LINE
5
EA
100
AcDbEntity
8
agganci
6
ByLayer
62
256
370
-1
100
AcDbLine
10
-90
20
477
11
-40
21
477
0
LINE
5
EB
100
AcDbEntity
8
agganci
6
ByLayer
62
256
370
-1
100
AcDbLine
10
-40
20
477
11
-40
21
527
0
LINE
5
EC
100
AcDbEntity
8
agganci
6
ByLayer
62
256
370
-1
100
AcDbLine
10
320
20
-40
11
270
21
-40
0
LINE
5
ED
100
AcDbEntity
8
agganci
6
ByLayer
62
256
370
-1
100
AcDbLine
10
270
20
-40
11
270
21
-90
0
LINE
5
EE
100
AcDbEntity
8
agganci
6
ByLayer
62
256
370
-1
100
AcDbLine
10
270
20
-90
11
320
21
-90
0
LINE
5
EF
100
AcDbEntity
8
agganci
6
ByLayer
62
256
370
-1
100
AcDbLine
10
320
20
-90
11
320
21
-40
0
LINE
5
F0
100
AcDbEntity
8
agganci
6
ByLayer
62
256
370
-1
100
AcDbLine
10
1297
20
-40
11
1247
21
-40
0
LINE
5
F1
100
AcDbEntity
8
agganci
6
ByLayer
62
256
370
-1
100
AcDbLine
10
1247
20
-40
11
1247
21
-90
0
LINE
5
F2
100
AcDbEntity
8
agganci
6
ByLayer
62
256
370
-1
100
AcDbLine
10
1247
20
-90
11
1297
21
-90
0
LINE
5
F3
100
AcDbEntity
8
agganci
6
ByLayer
62
256
370
-1
100
AcDbLine
10
1297
20
-90
11
1297
21
-40
0
LINE
5
F4
100
AcDbEntity
8
agganci
6
ByLayer
62
256
370
-1
100
AcDbLine
10
2274
20
-40
11
2224
21
-40
0
LINE
5
F5
100
AcDbEntity
8
agganci
6
ByLayer
62
256
370
-1
100
AcDbLine
10
2224
20
-40
11
2224
21
-90
0
LINE
5
F6
100
AcDbEntity
8
agganci
6
ByLayer
62
256
370
-1
100
AcDbLine
10
2224
20
-90
11
2274
21
-90
0
LINE
5
F7
100
AcDbEntity
8
agganci
6
ByLayer
62
256
370
-1
100
AcDbLine
10
2274
20
-90
11
2274
21
-40
0
LINE
5
F8
100
AcDbEntity
8
agganci
6
ByLayer
62
256
370
-1
100
AcDbLine
10
3251
20
-40
11
3201
21
-40
0
LINE
5
F9
100
AcDbEntity
8
agganci
6
ByLayer
62
256
370
-1
100
AcDbLine
10
3201
20
-40
11
3201
21
-90
0
LINE
5
FA
100
AcDbEntity
8
agganci
6
ByLayer
62
256
370
-1
100
AcDbLine
10
3201
20
-90
11
3251
21
-90
0
LINE
5
FB
100
AcDbEntity
8
agganci
6
ByLayer
62
256
370
-1
100
AcDbLine
10
3251
20
-90
11
3251
21
-40
0
DIMENSION
5
FC
100
AcDbEntity
8
ponteggio
6
ByLayer
62
256
370
-1
100
AcDbDimension
10
3533.3686063
20
25
30
0
11
3514.6186063
21
625
31
0
70
33
71
5
3
Standard
53
0
210
0
220
0
230
1
100
AcDbAlignedDimension
13
3625
23
1225
33
0
14
3625
24
25
34
0
0
DIMENSION
5
FD
100
AcDbEntity
8
ponteggio
6
ByLayer
62
256
370
-1
100
AcDbDimension
10
1825
20
314.901339122
30
0
11
2725
21
333.651339122
31
0
70
33
71
5
3
Standard
53
0
210
0
220
0
230
1
100
AcDbAlignedDimension
13
3625
23
25
33
0
14
1825
24
25
34
0
0
DIMENSION
5
FE
100
AcDbEntity
8
ponteggio
6
ByLayer
62
256
370
-1
100
AcDbDimension
10
25
20
279.464441759
30
0
11
925
21
298.214441759
31
0
70
33
71
5
3
Standard
53
0
210
0
220
0
230
1
100
AcDbAlignedDimension
13
1825
23
25
33
0
14
25
24
25
34
0
0
DIMENSION
5
FF
100
AcDbEntity
8
ponteggio
6
ByLayer
62
256
370
-1
100
AcDbDimension
10
139.243646681
20
1225
30
0
11
120.493646681
21
625
31
0
70
33
71
5
3
Standard
53
0
210
0
220
0
230
1
100
AcDbAlignedDimension
13
25
23
25
33
0
14
25
24
1225
34
0
0
MTEXT
5
100
100
AcDbEntity
8
scarti
6
ByLayer
62
256
370
-1
100
AcDbMText
10
-90
20
1479
30
0
40
50
41
205.555544955
71
1
72
1
1
Scarto
7

210
0
220
0
230
1
50
0
73
2
44
1
0
MTEXT
5
101
100
AcDbEntity
8
ponteggio
6
ByLayer
62
256
370
-1
100
AcDbMText
10
238.561620547
20
1106.92591934
30
0
40
50
41
311.111111111
71
1
72
1
1
Ponteggio
7

210
0
220
0
230
1
50
0
73
2
44
1
0
MTEXT
5
102
100
AcDbEntity
8
legno
6
ByLayer
62
256
370
-1
100
AcDbMText
10
3139.47092639
20
1350.25877229
30
0
40
50
41
470.833333333
71
1
72
1
1
Correnti legno
7

210
0
220
0
230
1
50
0
73
2
44
1
0
MTEXT
5
103
100
AcDbEntity
8
agganci
6
ByLayer
62
256
370
-1
100
AcDbMText
10
3168.09832086
20
1531.56560391
30
0
40
50
41
918.055555556
71
1
72
1
1
Montanti legno con agganci
7

210
0
220
0
230
1
50
0
73
2
44
1
0
LINE
5
104
100
AcDbEntity
8
pannelli foderati
6
ByLayer
62
256
370
-1
100
AcDbLine
10
-90
20
502
11
-90
21
1350
0
LINE
5
105
100
AcDbEntity
8
pannelli foderati
6
ByLayer
62
256
370
-1
100
AcDbLine
10
-90
20
-90
11
-90
21
502
0
LINE
5
106
100
AcDbEntity
8
pannelli foderati
6
ByLayer
62
256
370
-1
100
AcDbLine
10
295
20
-90
11
-90
21
-90
0
LINE
5
107
100
AcDbEntity
8
pannelli foderati
6
ByLayer
62
256
370
-1
100
AcDbLine
10
1272
20
-90
11
295
21
-90
0
LINE
5
108
100
AcDbEntity
8
pannelli foderati
6
ByLayer
62
256
370
-1
100
AcDbLine
10
2249
20
-90
11
1272
21
-90
0
LINE
5
109
100
AcDbEntity
8
pannelli foderati
6
ByLayer
62
256
370
-1
100
AcDbLine
10
2442.87
20
-103.059
11
2458.14
21
-110.693
0
LINE
5
10A
100
AcDbEntity
8
pannelli foderati
6
ByLayer
62
256
370
-1
100
AcDbLine
10
3226
20
-90
11
2249
21
-90
0
LINE
5
10B
100
AcDbEntity
8
pannelli foderati
6
ByLayer
62
256
370
-1
100
AcDbLine
10
3740
20
-90
11
3226
21
-90
0
LINE
5
10C
100
AcDbEntity
8
pannelli foderati
6
ByLayer
62
256
370
-1
100
AcDbLine
10
3740
20
373
11
3740
21
-90
0
LINE
5
10D
100
AcDbEntity
8
pannelli foderati
6
ByLayer
62
256
370
-1
100
AcDbLine
10
3740
20
1350
11
3740
21
373
0
MTEXT
5
10E
100
AcDbEntity
8
pannelli foderati
6
ByLayer
62
256
370
-1
100
AcDbMText
10
-830.194439502
20
-133.594507506
30
0
40
50
41
652.777777778
71
1
72
1
1
Pannelli con fodere
7

210
0
220
0
230
1
50
0
73
2
44
1
0
MTEXT
5
10F
100
AcDbEntity
8
m pannelli
6
ByLayer
62
256
370
-1
100
AcDbMText
10
-1103.34749503
20
1443.29780431
30
0
40
50
41
879.166692381
71
1
72
1
1
Misure pannelli da rifilare
7

210
0
220
0
230
1
50
0
73
2
44
1
0
MTEXT
5
110
100
AcDbEntity
8
m legno
6
ByLayer
62
256
370
-1
100
AcDbMText
10
-1091.419414
20
638.152334962
30
0
40
50
41
719.444470159
71
1
72
1
1
Misure correnti legno
7

210
0
220
0
230
1
50
0
73
2
44
1
0
LINE
5
111
100
AcDbEntity
8
agganci
6
ByLayer
62
256
370
-1
100
AcDbLine
10
-90
20
-4500
11
-40
21
-4500
0
LINE
5
112
100
AcDbEntity
8
agganci
6
ByLayer
62
256
370
-1
100
AcDbLine
10
-40
20
-4500
11
-40
21
-650
0
LINE
5
113
100
AcDbEntity
8
agganci
6
ByLayer
62
256
370
-1
100
AcDbLine
10
-40
20
-650
11
-90
21
-650
0
LINE
5
114
100
AcDbEntity
8
agganci
6
ByLayer
62
256
370
-1
100
AcDbLine
10
-90
20
-650
11
-90
21
-4500
0
LINE
5
115
100
AcDbEntity
8
agganci
6
ByLayer
62
256
370
-1
100
AcDbLine
10
270
20
-4500
11
320
21
-4500
0
LINE
5
116
100
AcDbEntity
8
agganci
6
ByLayer
62
256
370
-1
100
AcDbLine
10
320
20
-4500
11
320
21
-650
0
LINE
5
117
100
AcDbEntity
8
agganci
6
ByLayer
62
256
370
-1
100
AcDbLine
10
320
20
-650
11
270
21
-650
0
LINE
5
118
100
AcDbEntity
8
agganci
6
ByLayer
62
256
370
-1
100
AcDbLine
10
270
20
-650
11
270
21
-4500
0
LINE
5
119
100
AcDbEntity
8
agganci
6
ByLayer
62
256
370
-1
100
AcDbLine
10
1247
20
-4500
11
1297
21
-4500
0
LINE
5
11A
100
AcDbEntity
8
agganci
6
ByLayer
62
256
370
-1
100
AcDbLine
10
1297
20
-4500
11
1297
21
-650
0
LINE
5
11B
100
AcDbEntity
8
agganci
6
ByLayer
62
256
370
-1
100
AcDbLine
10
1297
20
-650
11
1247
21
-650
0
LINE
5
11C
100
AcDbEntity
8
agganci
6
ByLayer
62
256
370
-1
100
AcDbLine
10
1247
20
-650
11
1247
21
-4500
0
LINE
5
11D
100
AcDbEntity
8
agganci
6
ByLayer
62
256
370
-1
100
AcDbLine
10
2224
20
-4500
11
2274
21
-4500
0
LINE
5
11E
100
AcDbEntity
8
agganci
6
ByLayer
62
256
370
-1
100
AcDbLine
10
2274
20
-4500
11
2274
21
-650
0
LINE
5
11F
100
AcDbEntity
8
agganci
6
ByLayer
62
256
370
-1
100
AcDbLine
10
2274
20
-650
11
2224
21
-650
0
LINE
5
120
100
AcDbEntity
8
agganci
6
ByLayer
62
256
370
-1
100
AcDbLine
10
2224
20
-650
11
2224
21
-4500
0
LINE
5
121
100
AcDbEntity
8
agganci
6
ByLayer
62
256
370
-1
100
AcDbLine
10
3201
20
-4500
11
3251
21
-4500
0
LINE
5
122
100
AcDbEntity
8
agganci
6
ByLayer
62
256
370
-1
100
AcDbLine
10
3251
20
-4500
11
3251
21
-650
0
LINE
5
123
100
AcDbEntity
8
agganci
6
ByLayer
62
256
370
-1
100
AcDbLine
10
3251
20
-650
11
3201
21
-650
0
LINE
5
124
100
AcDbEntity
8
agganci
6
ByLayer
62
256
370
-1
100
AcDbLine
10
3201
20
-650
11
3201
21
-4500
0
LINE
5
125
100
AcDbEntity
8
agganci
6
ByLayer
62
256
370
-1
100
AcDbLine
10
3690
20
-4500
11
3740
21
-4500
0
LINE
5
126
100
AcDbEntity
8
agganci
6
ByLayer
62
256
370
-1
100
AcDbLine
10
3740
20
-4500
11
3740
21
-650
0
LINE
5
127
100
AcDbEntity
8
agganci
6
ByLayer
62
256
370
-1
100
AcDbLine
10
3740
20
-650
11
3690
21
-650
0
LINE
5
128
100
AcDbEntity
8
agganci
6
ByLayer
62
256
370
-1
100
AcDbLine
10
3690
20
-650
11
3690
21
-4500
0
LINE
5
129
100
AcDbEntity
8
legno
6
ByLayer
62
256
370
-1
100
AcDbLine
10
-90
20
-4500
11
3740
21
-4500
0
LINE
5
12A
100
AcDbEntity
8
legno
6
ByLayer
62
256
370
-1
100
AcDbLine
10
3740
20
-4500
11
3740
21
-4460
0
LINE
5
12B
100
AcDbEntity
8
legno
6
ByLayer
62
256
370
-1
100
AcDbLine
10
-90
20
-4460
11
3740
21
-4460
0
LINE
5
12C
100
AcDbEntity
8
legno
6
ByLayer
62
256
370
-1
100
AcDbLine
10
-90
20
-4460
11
-90
21
-4500
0
LINE
5
12D
100
AcDbEntity
8
legno
6
ByLayer
62
256
370
-1
100
AcDbLine
10
-90
20
-3730
11
3740
21
-3730
0
LINE
5
12E
100
AcDbEntity
8
legno
6
ByLayer
62
256
370
-1
100
AcDbLine
10
3740
20
-3730
11
3740
21
-3690
0
LINE
5
12F
100
AcDbEntity
8
legno
6
ByLayer
62
256
370
-1
100
AcDbLine
10
-90
20
-3690
11
3740
21
-3690
0
LINE
5
130
100
AcDbEntity
8
legno
6
ByLayer
62
256
370
-1
100
AcDbLine
10
-90
20
-3690
11
-90
21
-3730
0
LINE
5
131
100
AcDbEntity
8
legno
6
ByLayer
62
256
370
-1
100
AcDbLine
10
-90
20
-2960
11
3740
21
-2960
0
LINE
5
132
100
AcDbEntity
8
legno
6
ByLayer
62
256
370
-1
100
AcDbLine
10
3740
20
-2960
11
3740
21
-2920
0
LINE
5
133
100
AcDbEntity
8
legno
6
ByLayer
62
256
370
-1
100
AcDbLine
10
-90
20
-2920
11
3740
21
-2920
0
LINE
5
134
100
AcDbEntity
8
legno
6
ByLayer
62
256
370
-1
100
AcDbLine
10
-90
20
-2920
11
-90
21
-2960
0
LINE
5
135
100
AcDbEntity
8
legno
6
ByLayer
62
256
370
-1
100
AcDbLine
10
-90
20
-2190
11
3740
21
-2190
0
LINE
5
136
100
AcDbEntity
8
legno
6
ByLayer
62
256
370
-1
100
AcDbLine
10
3740
20
-2190
11
3740
21
-2150
0
LINE
5
137
100
AcDbEntity
8
legno
6
ByLayer
62
256
370
-1
100
AcDbLine
10
-90
20
-2150
11
3740
21
-2150
0
LINE
5
138
100
AcDbEntity
8
legno
6
ByLayer
62
256
370
-1
100
AcDbLine
10
-90
20
-2150
11
-90
21
-2190
0
LINE
5
139
100
AcDbEntity
8
legno
6
ByLayer
62
256
370
-1
100
AcDbLine
10
-90
20
-1420
11
3740
21
-1420
0
LINE
5
13A
100
AcDbEntity
8
legno
6
ByLayer
62
256
370
-1
100
AcDbLine
10
3740
20
-1420
11
3740
21
-1380
0
LINE
5
13B
100
AcDbEntity
8
legno
6
ByLayer
62
256
370
-1
100
AcDbLine
10
-90
20
-1380
11
3740
21
-1380
0
LINE
5
13C
100
AcDbEntity
8
legno
6
ByLayer
62
256
370
-1
100
AcDbLine
10
-90
20
-1380
11
-90
21
-1420
0
LINE
5
13D
100
AcDbEntity
8
legno
6
ByLayer
62
256
370
-1
100
AcDbLine
10
-90
20
-690
11
3740
21
-690
0
LINE
5
13E
100
AcDbEntity
8
legno
6
ByLayer
62
256
370
-1
100
AcDbLine
10
3740
20
-690
11
3740
21
-650
0
LINE
5
13F
100
AcDbEntity
8
legno
6
ByLayer
62
256
370
-1
100
AcDbLine
10
-90
20
-650
11
3740
21
-650
0
LINE
5
140
100
AcDbEntity
8
legno
6
ByLayer
62
256
370
-1
100
AcDbLine
10
-90
20
-650
11
-90
21
-690
0
LINE
5
141
100
AcDbEntity
8
pannelli foderati
6
ByLayer
62
256
370
-1
100
AcDbLine
10
-90
20
-3295
11
3740
21
-3295
0
LINE
5
142
100
AcDbEntity
8
pannelli foderati
6
ByLayer
62
256
370
-1
100
AcDbLine
10
295
20
-4500
11
295
21
-650
0
LINE
5
143
100
AcDbEntity
8
pannelli foderati
6
ByLayer
62
256
370
-1
100
AcDbLine
10
295
20
-4500
11
295
21
-650
0
LINE
5
144
100
AcDbEntity
8
pannelli foderati
6
ByLayer
62
256
370
-1
100
AcDbLine
10
295
20
-4500
11
295
21
-650
0
LINE
5
145
100
AcDbEntity
8
pannelli foderati
6
ByLayer
62
256
370
-1
100
AcDbLine
10
295
20
-4500
11
295
21
-650
0
LINE
5
146
100
AcDbEntity
8
pannelli foderati
6
ByLayer
62
256
370
-1
100
AcDbLine
10
295
20
-4500
11
295
21
-650
0
LINE
5
147
100
AcDbEntity
8
pannelli foderati
6
ByLayer
62
256
370
-1
100
AcDbLine
10
295
20
-4500
11
295
21
-650
0
LINE
5
148
100
AcDbEntity
8
pannelli foderati
6
ByLayer
62
256
370
-1
100
AcDbLine
10
295
20
-4500
11
295
21
-650
0
LINE
5
149
100
AcDbEntity
8
pannelli foderati
6
ByLayer
62
256
370
-1
100
AcDbLine
10
295
20
-4500
11
295
21
-650
0
LINE
5
14A
100
AcDbEntity
8
pannelli foderati
6
ByLayer
62
256
370
-1
100
AcDbLine
10
295
20
-4500
11
295
21
-650
0
LINE
5
14B
100
AcDbEntity
8
pannelli foderati
6
ByLayer
62
256
370
-1
100
AcDbLine
10
3740
20
-4500
11
-90
21
-4500
0
LINE
5
14C
100
AcDbEntity
8
pannelli foderati
6
ByLayer
62
256
370
-1
100
AcDbLine
10
-90
20
-3294
11
3740
21
-3294
0
LINE
5
14D
100
AcDbEntity
8
pannelli foderati
6
ByLayer
62
256
370
-1
100
AcDbLine
10
-90
20
-4500
11
-90
21
-593
0
LINE
5
14E
100
AcDbEntity
8
pannelli foderati
6
ByLayer
62
256
370
-1
100
AcDbLine
10
3740
20
-593
11
3740
21
-4500
0
LINE
5
14F
100
AcDbEntity
8
pannelli foderati
6
ByLayer
62
256
370
-1
100
AcDbLine
10
-90
20
-593
11
3740
21
-593
0
LINE
5
150
100
AcDbEntity
8
pannelli foderati
6
ByLayer
62
256
370
-1
100
AcDbLine
10
3226
20
-4500
11
3226
21
-593
0
LINE
5
151
100
AcDbEntity
8
pannelli foderati
6
ByLayer
62
256
370
-1
100
AcDbLine
10
2249
20
-4500
11
2249
21
-593
0
LINE
5
152
100
AcDbEntity
8
pannelli foderati
6
ByLayer
62
256
370
-1
100
AcDbLine
10
1272
20
-4500
11
1272
21
-593
0
LINE
5
153
100
AcDbEntity
8
pannelli foderati
6
ByLayer
62
256
370
-1
100
AcDbLine
10
296
20
-4500
11
296
21
-593
0
DIMENSION
5
154
100
AcDbEntity
8
m pannelli
6
ByLayer
62
256
370
-1
100
AcDbDimension
10
4013.7992657
20
-3294
30
0
11
3995.0492657
21
-3897
31
0
70
32
71
5
3
Standard
53
0
210
0
220
0
230
1
100
AcDbAlignedDimension
13
3740
23
-4500
33
0
14
3740
24
-3294
34
0
100
AcDbRotatedDimension
50
90
0
DIMENSION
5
155
100
AcDbEntity
8
m pannelli
6
ByLayer
62
256
370
-1
100
AcDbDimension
10
4186.75644059
20
-593
30
0
11
4168.00644059
21
-1943.5
31
0
70
32
71
5
3
Standard
53
0
210
0
220
0
230
1
100
AcDbAlignedDimension
13
3740
23
-3294
33
0
14
3740
24
-593
34
0
100
AcDbRotatedDimension
50
90
0
DIMENSION
5
156
100
AcDbEntity
8
misure varie
6
ByLayer
62
256
370
-1
100
AcDbDimension
10
4756.32230965
20
-593
30
0
11
4737.57230965
21
-2546.5
31
0
70
32
71
5
3
Standard
53
0
210
0
220
0
230
1
100
AcDbAlignedDimension
13
3740
23
-4500
33
0
14
3740
24
-593
34
0
100
AcDbRotatedDimension
50
90
0
LINE
5
157
100
AcDbEntity
8
agganci
6
ByLayer
62
256
370
-1
100
AcDbLine
10
8953
20
1350
11
8953
21
1300
0
LINE
5
158
100
AcDbEntity
8
agganci
6
ByLayer
62
256
370
-1
100
AcDbLine
10
8953
20
393
11
8953
21
343
0
LINE
5
159
100
AcDbEntity
8
legno
6
ByLayer
62
256
370
-1
100
AcDbLine
10
5143
20
1350
11
5143
21
-90
0
LINE
5
15A
100
AcDbEntity
8
legno
6
ByLayer
62
256
370
-1
100
AcDbLine
10
5103
20
1350
11
5103
21
-90
0
LINE
5
15B
100
AcDbEntity
8
legno
6
ByLayer
62
256
370
-1
100
AcDbLine
10
5873
20
1350
11
5873
21
-90
0
LINE
5
15C
100
AcDbEntity
8
legno
6
ByLayer
62
256
370
-1
100
AcDbLine
10
5833
20
1350
11
5833
21
-90
0
LINE
5
15D
100
AcDbEntity
8
legno
6
ByLayer
62
256
370
-1
100
AcDbLine
10
6643
20
1350
11
6643
21
-90
0
LINE
5
15E
100
AcDbEntity
8
legno
6
ByLayer
62
256
370
-1
100
AcDbLine
10
6603
20
1350
11
6603
21
-90
0
LINE
5
15F
100
AcDbEntity
8
legno
6
ByLayer
62
256
370
-1
100
AcDbLine
10
7373
20
1350
11
7373
21
-90
0
LINE
5
160
100
AcDbEntity
8
legno
6
ByLayer
62
256
370
-1
100
AcDbLine
10
7413
20
1350
11
7413
21
-90
0
LINE
5
161
100
AcDbEntity
8
pannelli foderati
6
ByLayer
62
256
370
-1
100
AcDbLine
10
7747
20
1350
11
7747
21
-90
0
LINE
5
162
100
AcDbEntity
8
pannelli foderati
6
ByLayer
62
256
370
-1
100
AcDbLine
10
7748
20
1350
11
7748
21
-90
0
LINE
5
163
100
AcDbEntity
8
legno
6
ByLayer
62
256
370
-1
100
AcDbLine
10
8143
20
1350
11
8143
21
-90
0
LINE
5
164
100
AcDbEntity
8
legno
6
ByLayer
62
256
370
-1
100
AcDbLine
10
8183
20
1350
11
8183
21
-90
0
LINE
5
165
100
AcDbEntity
8
legno
6
ByLayer
62
256
370
-1
100
AcDbLine
10
8913
20
1350
11
8913
21
-90
0
LINE
5
166
100
AcDbEntity
8
pannelli foderati
6
ByLayer
62
256
370
-1
100
AcDbLine
10
8953
20
-90
11
8953
21
1350
0
LINE
5
167
100
AcDbEntity
8
legno
6
ByLayer
62
256
370
-1
100
AcDbLine
10
8953
20
1350
11
8953
21
-90
0
LINE
5
168
100
AcDbEntity
8
pannelli foderati
6
ByLayer
62
256
370
-1
100
AcDbLine
10
8953
20
1350
11
5046
21
1350
0
LINE
5
169
100
AcDbEntity
8
pannelli foderati
6
ByLayer
62
256
370
-1
100
AcDbLine
10
5046
20
1350
11
5046
21
-90
0
LINE
5
16A
100
AcDbEntity
8
pannelli foderati
6
ByLayer
62
256
370
-1
100
AcDbLine
10
5046
20
-90
11
8953
21
-90
0
LINE
5
16B
100
AcDbEntity
8
pannelli foderati
6
ByLayer
62
256
370
-1
100
AcDbLine
10
8953
20
-90
11
8953
21
1350
0
LINE
5
16C
100
AcDbEntity
8
agganci
6
ByLayer
62
256
370
-1
100
AcDbLine
10
3740
20
1350
11
3690
21
1350
0
LINE
5
16D
100
AcDbEntity
8
agganci
6
ByLayer
62
256
370
-1
100
AcDbLine
10
3690
20
1300
11
3740
21
1300
0
LINE
5
16E
100
AcDbEntity
8
agganci
6
ByLayer
62
256
370
-1
100
AcDbLine
10
3740
20
398
11
3690
21
398
0
LINE
5
16F
100
AcDbEntity
8
agganci
6
ByLayer
62
256
370
-1
100
AcDbLine
10
3690
20
348
11
3740
21
348
0
LINE
5
170
100
AcDbEntity
8
agganci
6
ByLayer
62
256
370
-1
100
AcDbLine
10
5103
20
-40
11
8953
21
-40
0
LINE
5
171
100
AcDbEntity
8
agganci
6
ByLayer
62
256
370
-1
100
AcDbLine
10
8953
20
-90
11
5103
21
-90
0
LINE
5
172
100
AcDbEntity
8
agganci
6
ByLayer
62
256
370
-1
100
AcDbLine
10
3690
20
-40
11
3740
21
-40
0
LINE
5
173
100
AcDbEntity
8
agganci
6
ByLayer
62
256
370
-1
100
AcDbLine
10
3740
20
-90
11
3690
21
-90
0
LINE
5
174
100
AcDbEntity
8
agganci
6
ByLayer
62
256
370
-1
100
AcDbLine
10
5103
20
348
11
8953
21
348
0
LINE
5
175
100
AcDbEntity
8
agganci
6
ByLayer
62
256
370
-1
100
AcDbLine
10
8953
20
398
11
5103
21
398
0
LINE
5
176
100
AcDbEntity
8
agganci
6
ByLayer
62
256
370
-1
100
AcDbLine
10
5103
20
1300
11
8953
21
1300
0
LINE
5
177
100
AcDbEntity
8
agganci
6
ByLayer
62
256
370
-1
100
AcDbLine
10
8953
20
1350
11
5103
21
1350
0
LINE
5
178
100
AcDbEntity
8
agganci
6
ByLayer
62
256
370
-1
100
AcDbLine
10
8953
20
398
11
8953
21
348
0
LINE
5
179
100
AcDbEntity
8
agganci
6
ByLayer
62
256
370
-1
100
AcDbLine
10
5103
20
398
11
5103
21
348
0
LINE
5
17A
100
AcDbEntity
8
agganci
6
ByLayer
62
256
370
-1
100
AcDbLine
10
5103
20
-40
11
5103
21
-90
0
LINE
5
17B
100
AcDbEntity
8
agganci
6
ByLayer
62
256
370
-1
100
AcDbLine
10
5103
20
1350
11
5103
21
1300
0
LINE
5
17C
100
AcDbEntity
8
pannelli foderati
6
ByLayer
62
256
370
-1
100
AcDbLine
10
8953
20
373
11
5046
21
373
0
LINE
5
17D
100
AcDbEntity
8
agganci
6
ByLayer
62
256
370
-1
100
AcDbLine
10
-6359
20
1350
11
-6359
21
1300
0
LINE
5
17E
100
AcDbEntity
8
legno
6
ByLayer
62
256
370
-1
100
AcDbLine
10
-2549
20
1350
11
-2549
21
-90
0
LINE
5
17F
100
AcDbEntity
8
legno
6
ByLayer
62
256
370
-1
100
AcDbLine
10
-2509
20
1350
11
-2509
21
-90
0
LINE
5
180
100
AcDbEntity
8
legno
6
ByLayer
62
256
370
-1
100
AcDbLine
10
-3279
20
1350
11
-3279
21
-90
0
LINE
5
181
100
AcDbEntity
8
legno
6
ByLayer
62
256
370
-1
100
AcDbLine
10
-3239
20
1350
11
-3239
21
-90
0
LINE
5
182
100
AcDbEntity
8
legno
6
ByLayer
62
256
370
-1
100
AcDbLine
10
-4049
20
1350
11
-4049
21
-90
0
LINE
5
183
100
AcDbEntity
8
legno
6
ByLayer
62
256
370
-1
100
AcDbLine
10
-4009
20
1350
11
-4009
21
-90
0
LINE
5
184
100
AcDbEntity
8
legno
6
ByLayer
62
256
370
-1
100
AcDbLine
10
-4779
20
1350
11
-4779
21
-90
0
LINE
5
185
100
AcDbEntity
8
legno
6
ByLayer
62
256
370
-1
100
AcDbLine
10
-4819
20
1350
11
-4819
21
-90
0
LINE
5
186
100
AcDbEntity
8
pannelli foderati
6
ByLayer
62
256
370
-1
100
AcDbLine
10
-5153
20
1350
11
-5153
21
-90
0
LINE
5
187
100
AcDbEntity
8
pannelli foderati
6
ByLayer
62
256
370
-1
100
AcDbLine
10
-5154
20
1350
11
-5154
21
-90
0
LINE
5
188
100
AcDbEntity
8
legno
6
ByLayer
62
256
370
-1
100
AcDbLine
10
-5549
20
1350
11
-5549
21
-90
0
LINE
5
189
100
AcDbEntity
8
legno
6
ByLayer
62
256
370
-1
100
AcDbLine
10
-5589
20
1350
11
-5589
21
-90
0
LINE
5
18A
100
AcDbEntity
8
legno
6
ByLayer
62
256
370
-1
100
AcDbLine
10
-6319
20
1350
11
-6319
21
-90
0
LINE
5
18B
100
AcDbEntity
8
pannelli foderati
6
ByLayer
62
256
370
-1
100
AcDbLine
10
-6359
20
-90
11
-6359
21
1350
0
LINE
5
18C
100
AcDbEntity
8
legno
6
ByLayer
62
256
370
-1
100
AcDbLine
10
-6359
20
1350
11
-6359
21
-90
0
LINE
5
18D
100
AcDbEntity
8
pannelli foderati
6
ByLayer
62
256
370
-1
100
AcDbLine
10
-6359
20
1350
11
-2452
21
1350
0
LINE
5
18E
100
AcDbEntity
8
pannelli foderati
6
ByLayer
62
256
370
-1
100
AcDbLine
10
-2452
20
1350
11
-2452
21
-90
0
LINE
5
18F
100
AcDbEntity
8
pannelli foderati
6
ByLayer
62
256
370
-1
100
AcDbLine
10
-2452
20
-90
11
-6359
21
-90
0
LINE
5
190
100
AcDbEntity
8
pannelli foderati
6
ByLayer
62
256
370
-1
100
AcDbLine
10
-6359
20
-90
11
-6359
21
1350
0
LINE
5
191
100
AcDbEntity
8
agganci
6
ByLayer
62
256
370
-1
100
AcDbLine
10
-2509
20
-40
11
-6359
21
-40
0
LINE
5
192
100
AcDbEntity
8
agganci
6
ByLayer
62
256
370
-1
100
AcDbLine
10
-6359
20
-90
11
-2509
21
-90
0
LINE
5
193
100
AcDbEntity
8
agganci
6
ByLayer
62
256
370
-1
100
AcDbLine
10
-2509
20
1300
11
-6359
21
1300
0
LINE
5
194
100
AcDbEntity
8
agganci
6
ByLayer
62
256
370
-1
100
AcDbLine
10
-6359
20
1350
11
-2509
21
1350
0
LINE
5
195
100
AcDbEntity
8
agganci
6
ByLayer
62
256
370
-1
100
AcDbLine
10
-2509
20
-40
11
-2509
21
-90
0
LINE
5
196
100
AcDbEntity
8
agganci
6
ByLayer
62
256
370
-1
100
AcDbLine
10
-2509
20
1350
11
-2509
21
1300
0
LINE
5
197
100
AcDbEntity
8
agganci
6
ByLayer
62
256
370
-1
100
AcDbLine
10
-6359
20
522.648583122
11
-6359
21
472.648583122
0
LINE
5
198
100
AcDbEntity
8
agganci
6
ByLayer
62
256
370
-1
100
AcDbLine
10
-2509
20
477.648583122
11
-6359
21
477.648583122
0
LINE
5
199
100
AcDbEntity
8
agganci
6
ByLayer
62
256
370
-1
100
AcDbLine
10
-6359
20
527.648583122
11
-2509
21
527.648583122
0
LINE
5
19A
100
AcDbEntity
8
agganci
6
ByLayer
62
256
370
-1
100
AcDbLine
10
-6359
20
527.648583122
11
-6359
21
477.648583122
0
LINE
5
19B
100
AcDbEntity
8
agganci
6
ByLayer
62
256
370
-1
100
AcDbLine
10
-2509
20
527.648583122
11
-2509
21
477.648583122
0
LINE
5
19C
100
AcDbEntity
8
pannelli foderati
6
ByLayer
62
256
370
-1
100
AcDbLine
10
-6359
20
502.648583122
11
-2452
21
502.648583122
0
LINE
5
19D
100
AcDbEntity
8
agganci
6
ByLayer
62
256
370
-1
100
AcDbLine
10
-40
20
527
11
-90
21
527
0
ENDSEC
0
SECTION
2
OBJECTS
0
DICTIONARY
5
C
330
0
100
AcDbDictionary
281
1
3
ACAD_GROUP
350
D
0
DICTIONARY
5
D
330
C
100
AcDbDictionary
281
1
0
ENDSEC
0
EOF
